<?xml version="1.0" encoding="utf-8"?>
<!-- Generator: Adobe Illustrator 22.0.0, SVG Export Plug-In . SVG Version: 6.00 Build 0)  -->
<svg version="1.1" id="main-logo" xmlns="http://www.w3.org/2000/svg" xmlns:xlink="http://www.w3.org/1999/xlink" x="0px" y="0px"
	 viewBox="0 0 40.3 52.6" style="enable-background:new 0 0 40.3 52.6;" xml:space="preserve">
<style type="text/css">
	.st0{fill:#10C9C3;}
</style>
<path id="path" class="st0" d="M32,6.1c-3.7,2.8-6.8,6.3-9.1,10.4C45.2,9,42.8,42.2,22.1,37.9c-0.2,4.8-1.7,9.5-4.2,13.6
	c0.6-4.5,2.5-8.8-1-13.9c-2-2.9-9.8-1.8-12.5-4.8c-7.3-8.1,0.6-21.5,12-15.6c-1.2-3.9-2.1-12,0.3-16.2c1.8-0.1,2.4,0.9,3.6,1.3
	c0.5,0.6-0.4,1.1-0.3,2c0.7-0.9,1.2-2.1,1.8-3c1.3,0.4,2.5,1.2,3.4,2.3c-0.7,1.6-1.5,2.9-2.1,4.5c2-1,3.9-4.1,6.8-5
	C31.3,3.4,31.4,5,32,6.1"/>
</svg>
